<svg width="202" height="202" viewBox="0 0 202 202" fill="none" xmlns="http://www.w3.org/2000/svg">
<path d="M197.602 101.728L197.525 103.531L190.448 103.231L190.266 107.504L188.715 107.438L188.973 101.362L197.602 101.728Z" fill="#F3F2F1"/>
<path d="M189.747 113.07C189.648 113.778 189.831 114.375 190.296 114.862C190.76 115.353 191.473 115.666 192.437 115.8C193.396 115.934 194.166 115.829 194.747 115.484C195.33 115.143 195.672 114.619 195.771 113.911C195.87 113.203 195.687 112.602 195.224 112.107C194.76 111.612 194.047 111.298 193.084 111.163C192.12 111.029 191.348 111.136 190.767 111.485C190.186 111.834 189.846 112.362 189.747 113.07ZM192.187 117.587C190.651 117.373 189.535 116.778 188.839 115.801C188.264 115.062 188.062 114.081 188.232 112.859C188.403 111.636 188.866 110.748 189.622 110.195C190.559 109.442 191.796 109.173 193.332 109.388C194.898 109.606 196.014 110.204 196.678 111.18C197.254 111.919 197.456 112.9 197.285 114.122C197.115 115.345 196.652 116.233 195.896 116.786C194.99 117.539 193.754 117.806 192.187 117.587Z" fill="#F3F2F1"/>
<path d="M193.656 122.235L191.403 121.68L190.914 123.665C190.816 124.059 190.789 124.367 190.831 124.586C190.905 124.974 191.176 125.227 191.647 125.343C192.155 125.468 192.538 125.383 192.795 125.089C192.941 124.924 193.06 124.651 193.154 124.272L193.656 122.235ZM194.52 124.995C194.364 125.58 194.181 126.014 193.97 126.296C193.759 126.582 193.497 126.803 193.185 126.959C192.928 127.089 192.657 127.175 192.373 127.218C192.089 127.26 191.782 127.241 191.452 127.159C191.054 127.061 190.686 126.864 190.349 126.567C190.015 126.272 189.826 125.873 189.781 125.371C189.53 125.72 189.241 125.938 188.913 126.026C188.588 126.119 188.132 126.093 187.544 125.948L186.981 125.809C186.598 125.715 186.334 125.666 186.19 125.662C185.963 125.654 185.778 125.721 185.634 125.863L185.424 125.811L185.899 123.883C186.098 123.875 186.257 123.874 186.377 123.88C186.623 123.892 186.87 123.927 187.117 123.984L187.9 124.165C188.436 124.289 188.817 124.278 189.042 124.133C189.266 123.991 189.442 123.662 189.569 123.146L190.015 121.337L186.727 120.526L187.15 118.814L195.535 120.882L194.52 124.995Z" fill="#F3F2F1"/>
<path d="M190.009 135.916L191.534 131.608L189.805 130.996L188.405 134.951L186.991 134.45L188.391 130.495L186.298 129.755L184.702 134.262L183.239 133.744L185.422 127.574L193.564 130.456L191.451 136.427L190.009 135.916Z" fill="#F3F2F1"/>
<path d="M189.673 138.953L188.871 140.668L181.952 141.229L187.414 143.783L186.702 145.307L178.878 141.648L179.643 140.013L186.694 139.417L181.137 136.818L181.849 135.295L189.673 138.953Z" fill="#F3F2F1"/>
<path d="M179.943 143.462L182.508 150.132L184.705 146.381L186.025 147.154L182.69 152.846L181.441 152.115L178.836 145.353L176.546 149.261L175.232 148.491L178.629 142.692L179.943 143.462Z" fill="#F3F2F1"/>
<path d="M173.745 152.94C173.324 153.518 173.204 154.131 173.385 154.779C173.563 155.43 174.045 156.042 174.832 156.614C175.615 157.184 176.344 157.454 177.019 157.423C177.695 157.397 178.243 157.095 178.663 156.517C179.084 155.939 179.206 155.323 179.03 154.668C178.854 154.014 178.373 153.401 177.586 152.828C176.799 152.256 176.068 151.987 175.391 152.021C174.714 152.055 174.165 152.362 173.745 152.94ZM173.77 158.074C172.516 157.162 171.812 156.111 171.658 154.922C171.499 153.999 171.782 153.038 172.508 152.04C173.234 151.042 174.061 150.477 174.988 150.344C176.169 150.122 177.387 150.466 178.641 151.378C179.92 152.309 180.623 153.361 180.75 154.536C180.909 155.458 180.626 156.419 179.9 157.417C179.174 158.415 178.347 158.98 177.42 159.113C176.266 159.351 175.05 159.004 173.77 158.074Z" fill="#F3F2F1"/>
<path d="M172.225 166.607L167.959 170.999L166.87 169.942L169.887 166.836L168.462 165.452L165.821 168.171L164.745 167.126L167.386 164.407L164.789 161.884L166.038 160.598L172.225 166.607Z" fill="#F3F2F1"/>
<path d="M161.174 169.743L159.511 171.17L162.542 173.047L161.174 169.743ZM164.589 173.894L163.041 175.221L155.096 170.658L156.581 169.384L158.16 170.369L160.575 168.297L159.872 166.56L161.304 165.332L164.589 173.894Z" fill="#F3F2F1"/>
<path d="M153.179 172.104L154.618 171.033L159.774 177.962L158.336 179.032L153.179 172.104Z" fill="#F3F2F1"/>
<path d="M151.62 183.524L150.038 184.53L147.889 175.661L149.327 174.746L156.425 180.467L154.799 181.501L149.697 176.976L151.62 183.524Z" fill="#F3F2F1"/>
<path d="M145.917 185.008L144.865 182.94L143.042 183.868C142.68 184.052 142.43 184.232 142.292 184.408C142.046 184.717 142.033 185.087 142.252 185.519C142.49 185.985 142.804 186.22 143.196 186.222C143.416 186.224 143.7 186.137 144.048 185.959L145.917 185.008ZM144.394 187.466C143.849 187.731 143.401 187.875 143.05 187.9C142.696 187.927 142.358 187.874 142.035 187.74C141.769 187.63 141.527 187.482 141.309 187.295C141.091 187.107 140.905 186.862 140.75 186.56C140.564 186.194 140.473 185.787 140.477 185.338C140.483 184.892 140.661 184.488 141.011 184.126C140.583 184.164 140.229 184.088 139.948 183.898C139.665 183.713 139.387 183.351 139.112 182.811L138.849 182.294C138.67 181.942 138.535 181.711 138.443 181.6C138.3 181.423 138.128 181.326 137.927 181.31L137.829 181.117L139.599 180.216C139.735 180.362 139.84 180.481 139.914 180.575C140.065 180.77 140.2 180.979 140.319 181.204L140.694 181.914C140.95 182.401 141.207 182.682 141.465 182.757C141.719 182.834 142.082 182.752 142.556 182.511L144.216 181.666L142.68 178.648L144.252 177.848L148.17 185.545L144.394 187.466Z" fill="#F3F2F1"/>
<path d="M133.062 191.148L137.322 189.495L136.659 187.785L132.748 189.303L132.205 187.904L136.116 186.386L135.313 184.316L130.855 186.046L130.294 184.599L136.395 182.231L139.52 190.282L133.615 192.574L133.062 191.148Z" fill="#F3F2F1"/>
<path d="M125.375 187.099C125.418 187.566 125.42 187.978 125.38 188.332C125.336 188.688 125.252 188.991 125.127 189.242C124.993 189.507 124.838 189.707 124.662 189.841C124.486 189.979 124.293 190.074 124.084 190.123C123.993 190.145 123.871 190.162 123.717 190.175C123.473 190.193 123.24 190.188 123.021 190.16L121.571 189.964C121.4 189.941 121.24 189.933 121.089 189.941C120.935 189.953 120.819 189.969 120.739 189.988C120.488 190.048 120.312 190.192 120.21 190.421C120.109 190.654 120.057 190.918 120.055 191.211L119.086 191.443C119.02 190.711 119.086 190.055 119.285 189.474C119.48 188.893 119.847 188.538 120.386 188.41C120.493 188.384 120.607 188.367 120.729 188.358C120.966 188.338 121.255 188.355 121.597 188.41L122.896 188.576C123.016 188.591 123.16 188.597 123.328 188.593C123.495 188.589 123.617 188.578 123.693 188.56C123.91 188.508 124.082 188.379 124.209 188.172C124.337 187.969 124.397 187.689 124.389 187.334L125.375 187.099Z" fill="#F3F2F1"/>
<path d="M111.756 190.94C111.662 190.553 111.526 190.27 111.347 190.092C111.02 189.768 110.503 189.641 109.795 189.712C109.372 189.755 109.032 189.836 108.778 189.956C108.294 190.185 108.077 190.543 108.126 191.029C108.154 191.312 108.301 191.519 108.565 191.65C108.829 191.776 109.233 191.871 109.777 191.934L110.707 192.047C111.622 192.159 112.262 192.316 112.628 192.519C113.247 192.857 113.599 193.448 113.683 194.291C113.761 195.061 113.545 195.729 113.037 196.294C112.528 196.859 111.732 197.197 110.647 197.306C109.742 197.397 108.946 197.233 108.26 196.816C107.571 196.402 107.165 195.74 107.042 194.83L108.767 194.656C108.851 195.17 109.113 195.515 109.555 195.69C109.849 195.806 110.204 195.843 110.62 195.801C111.082 195.754 111.442 195.624 111.699 195.41C111.957 195.195 112.068 194.921 112.035 194.587C112.004 194.28 111.845 194.064 111.557 193.94C111.372 193.856 110.987 193.775 110.402 193.697L108.886 193.49C108.221 193.4 107.71 193.241 107.354 193.014C106.8 192.662 106.485 192.102 106.408 191.337C106.329 190.552 106.564 189.868 107.114 189.287C107.661 188.71 108.482 188.366 109.578 188.256C110.698 188.143 111.604 188.309 112.296 188.754C112.989 189.203 113.38 189.874 113.47 190.768L111.756 190.94Z" fill="#F3F2F1"/>
<path d="M100.356 190.253C99.6414 190.247 99.0729 190.507 98.6509 191.031C98.225 191.555 98.0082 192.303 98.0007 193.276C97.9933 194.245 98.1984 194.994 98.6162 195.525C99.0301 196.059 99.5944 196.329 100.309 196.335C101.024 196.34 101.596 196.081 102.026 195.557C102.456 195.033 102.675 194.285 102.682 193.312C102.69 192.339 102.483 191.588 102.061 191.057C101.639 190.526 101.071 190.258 100.356 190.253ZM96.1961 193.262C96.2081 191.711 96.6528 190.527 97.5302 189.71C98.1877 189.043 99.1336 188.714 100.368 188.724C101.602 188.733 102.543 189.076 103.19 189.753C104.059 190.584 104.487 191.775 104.475 193.326C104.463 194.908 104.016 196.092 103.135 196.878C102.478 197.545 101.532 197.873 100.297 197.864C99.0631 197.854 98.1223 197.511 97.4752 196.834C96.6103 196.035 96.1839 194.844 96.1961 193.262Z" fill="#F3F2F1"/>
<path d="M93.5455 197.554L87.4556 196.917L87.6133 195.408L91.9199 195.858L92.1263 193.882L88.3558 193.489L88.5117 191.997L92.2821 192.391L92.6584 188.789L94.4417 188.975L93.5455 197.554Z" fill="#F3F2F1"/>
<path d="M79.7769 195.343L80.0692 193.842L82.6056 194.336L83.9639 187.359L85.7468 187.707L84.3885 194.683L86.9363 195.179L86.6441 196.68L79.7769 195.343Z" fill="#F3F2F1"/>
<path d="M76.2849 194.214L76.6483 189.152L76.8183 187.763L76.1809 188.977L73.7874 193.445L71.9674 192.885L72.4428 187.857L72.596 186.463L71.9543 187.651L69.3802 192.088L67.6275 191.548L72.4931 184.01L74.1395 184.517L73.6499 189.651L73.4496 191.336L74.2323 189.83L76.7155 185.31L78.317 185.803L78.1161 194.778L76.2849 194.214Z" fill="#F3F2F1"/>
<path d="M64.9289 184.77L62.9236 183.886L62.5398 187.431L64.9289 184.77ZM62.6604 189.642L60.7944 188.819L61.4784 179.682L63.2692 180.472L63.0627 182.321L65.9741 183.604L67.237 182.22L68.9635 182.981L62.6604 189.642Z" fill="#F3F2F1"/>
<path d="M55.5228 184.558L56.666 182.539L54.8865 181.532C54.5329 181.331 54.2447 181.222 54.0218 181.204C53.6282 181.169 53.3121 181.363 53.0735 181.784C52.8156 182.24 52.7936 182.632 53.0076 182.959C53.1276 183.144 53.3575 183.332 53.6974 183.525L55.5228 184.558ZM52.6321 184.645C52.111 184.337 51.743 184.043 51.5282 183.765C51.31 183.484 51.1678 183.172 51.1015 182.829C51.0461 182.547 51.0363 182.263 51.072 181.978C51.1077 181.693 51.2092 181.402 51.3766 181.107C51.5787 180.75 51.868 180.449 52.2445 180.204C52.619 179.963 53.054 179.888 53.5496 179.98C53.2817 179.644 53.1496 179.307 53.1531 178.968C53.1513 178.63 53.2995 178.198 53.5978 177.671L53.8836 177.166C54.078 176.823 54.1962 176.582 54.2383 176.445C54.3072 176.228 54.2928 176.031 54.1952 175.855L54.302 175.666L56.0306 176.645C55.9839 176.838 55.9418 176.992 55.9045 177.105C55.826 177.339 55.7258 177.567 55.6042 177.79L55.2189 178.495C54.9543 178.978 54.8618 179.347 54.9413 179.603C55.0174 179.857 55.2866 180.115 55.7489 180.377L57.3704 181.295L59.0389 178.348L60.5737 179.217L56.3186 186.732L52.6321 184.645Z" fill="#F3F2F1"/>
<path d="M44.3972 176.986L48.1416 179.607L49.1932 178.104L45.756 175.699L46.616 174.47L50.0532 176.875L51.3265 175.056L47.4093 172.314L48.2996 171.042L53.6618 174.795L48.7097 181.871L43.5203 178.239L44.3972 176.986Z" fill="#F3F2F1"/>
<path d="M33.6998 168.708L37.0354 171.833L38.2891 170.494L35.2272 167.626L36.2526 166.531L39.3145 169.399L40.8326 167.779L37.343 164.51L38.4045 163.377L43.1813 167.851L37.2772 174.155L32.6543 169.825L33.6998 168.708Z" fill="#F3F2F1"/>
<path d="M30.697 167.458L29.4491 166.035L31.7142 159.474L27.1812 163.449L26.0724 162.185L32.5657 156.49L33.7556 157.847L31.4692 164.544L36.0814 160.499L37.1903 161.763L30.697 167.458Z" fill="#F3F2F1"/>
<path d="M23.8597 154.433C23.4581 154.886 23.3157 155.397 23.4324 155.966C23.4994 156.282 23.6381 156.589 23.8485 156.885C24.2514 157.452 24.7978 157.765 25.4879 157.826C26.1725 157.886 26.9447 157.61 27.8043 156.999C28.6704 156.383 29.1429 155.75 29.2221 155.1C29.3013 154.449 29.1621 153.872 28.8045 153.369C28.4537 152.876 28.0246 152.572 27.5172 152.458C27.0066 152.347 26.4944 152.419 25.9807 152.673L27.1383 154.302L25.9634 155.137L23.8791 152.205L27.6568 149.52L28.3493 150.494L27.5758 151.267C28.1115 151.312 28.5282 151.4 28.8258 151.528C29.3407 151.747 29.7995 152.14 30.2024 152.706C30.8654 153.639 31.0854 154.633 30.8623 155.688C30.6541 156.77 29.9864 157.712 28.8593 158.513C27.7195 159.324 26.5828 159.659 25.4492 159.521C24.3157 159.383 23.3823 158.798 22.649 157.766C22.0131 156.871 21.7304 155.992 21.801 155.127C21.8661 154.261 22.2095 153.547 22.8311 152.986L23.8597 154.433Z" fill="#F3F2F1"/>
<path d="M25.7896 146.07L26.7185 147.603L19.3313 152.078L18.4024 150.544L25.7896 146.07Z" fill="#F3F2F1"/>
<path d="M16.4872 148.232L15.6287 146.546L19.4419 140.745L14.0685 143.48L13.3057 141.982L21.0028 138.064L21.8214 139.672L17.9541 145.599L23.4214 142.816L24.1843 144.315L16.4872 148.232Z" fill="#F3F2F1"/>
<path d="M11.8183 133.051L13.4879 137.306L15.1951 136.636L13.6625 132.73L15.0588 132.182L16.5914 136.088L18.6586 135.276L16.912 130.826L18.3574 130.258L20.7483 136.351L12.7085 139.506L10.3947 133.61L11.8183 133.051Z" fill="#F3F2F1"/>
<path d="M8.67994 124.37L9.92544 128.767L11.69 128.267L10.5467 124.231L11.9899 123.822L13.1332 127.858L15.2699 127.253L13.9669 122.653L15.4609 122.23L17.2445 128.527L8.93466 130.881L7.20853 124.786L8.67994 124.37Z" fill="#F3F2F1"/>
<path d="M7.29297 119.291L9.57703 118.883L9.21696 116.87C9.14543 116.47 9.04564 116.178 8.91759 115.995C8.69281 115.67 8.34202 115.55 7.86521 115.635C7.34995 115.728 7.03449 115.961 6.91882 116.334C6.85324 116.545 6.85484 116.842 6.92362 117.226L7.29297 119.291ZM5.38102 117.121C5.28595 116.523 5.27716 116.053 5.35465 115.709C5.43146 115.362 5.58066 115.054 5.80224 114.784C5.98456 114.561 6.19682 114.372 6.43904 114.218C6.68126 114.063 6.96963 113.956 7.30417 113.896C7.70791 113.824 8.12412 113.855 8.55279 113.989C8.97761 114.123 9.31272 114.41 9.55814 114.85C9.64563 114.43 9.82106 114.113 10.0844 113.899C10.3432 113.682 10.7706 113.52 11.3666 113.414L11.9377 113.312C12.326 113.242 12.5867 113.18 12.7196 113.124C12.9305 113.039 13.0728 112.902 13.1463 112.715L13.3597 112.676L13.7095 114.632C13.5307 114.719 13.3857 114.785 13.2745 114.829C13.0443 114.917 12.8046 114.986 12.5554 115.035L11.7672 115.187C11.2264 115.292 10.8829 115.457 10.7365 115.681C10.5895 115.902 10.5628 116.274 10.6563 116.797L10.9844 118.631L14.3182 118.035L14.6287 119.771L6.12694 121.292L5.38102 117.121Z" fill="#F3F2F1"/>
<path d="M10.6916 107.978C10.1724 107.996 9.72291 107.882 9.34309 107.638C8.96326 107.393 8.58165 106.984 8.19824 106.411L8.08067 106.233C7.80827 106.493 7.52805 106.696 7.24 106.843C6.95196 106.99 6.64983 107.069 6.33362 107.08C5.70509 107.102 5.20782 106.908 4.84182 106.498C4.47192 106.089 4.2753 105.549 4.25197 104.877C4.23067 104.264 4.39463 103.752 4.74386 103.342C5.08904 102.927 5.54271 102.71 6.10488 102.69C6.61238 102.673 7.02845 102.78 7.35307 103.011C7.67756 103.238 7.98257 103.579 8.26808 104.034L9.73636 102.758C9.52847 102.624 9.30417 102.525 9.06345 102.459C8.8226 102.389 8.56938 102.357 8.30378 102.362L8.2523 100.88C8.77623 100.886 9.30955 100.992 9.85225 101.2C10.1572 101.314 10.4961 101.506 10.8689 101.774L12.7 100.14L12.7704 102.166L12.0591 102.788C12.3385 103.068 12.547 103.33 12.6845 103.576C12.9303 104.013 13.0633 104.522 13.0835 105.104C13.1139 105.978 12.88 106.67 12.3818 107.18C11.8836 107.69 11.3202 107.956 10.6916 107.978ZM6.22174 105.547C6.3779 105.542 6.53996 105.482 6.70794 105.366C6.81871 105.292 7.01447 105.133 7.29522 104.889C7.12311 104.66 6.97869 104.497 6.86195 104.4C6.64436 104.212 6.41259 104.122 6.16664 104.131C5.98707 104.137 5.82904 104.201 5.69257 104.323C5.5561 104.445 5.492 104.625 5.50028 104.863C5.50543 105.011 5.55124 105.149 5.6377 105.275C5.7655 105.466 5.96018 105.557 6.22174 105.547ZM10.5812 106.316C10.8661 106.307 11.1237 106.182 11.3538 105.944C11.5838 105.701 11.6925 105.398 11.6799 105.035C11.6704 104.762 11.599 104.507 11.4657 104.269C11.3283 104.027 11.1789 103.833 11.0174 103.686L9.11652 105.335C9.40821 105.744 9.66184 106.012 9.87739 106.142C10.0928 106.267 10.3274 106.325 10.5812 106.316Z" fill="#F3F2F1"/>
<path d="M10.0325 92.7926L10.2686 90.6139L6.7738 91.3197L10.0325 92.7926ZM4.70274 92.1031L4.92241 90.0759L13.8384 87.9655L13.6275 89.9111L11.8025 90.2733L11.4598 93.4364L13.1604 94.2218L12.9572 96.0976L4.70274 92.1031Z" fill="#F3F2F1"/>
<path d="M7.29212 83.5239L9.56444 83.9934L9.97822 81.9908C10.0604 81.5929 10.0762 81.2851 10.0255 81.0672C9.9375 80.682 9.65635 80.4405 9.182 80.3424C8.66939 80.2365 8.28992 80.3356 8.04361 80.6397C7.90462 80.8105 7.79561 81.0871 7.71657 81.4696L7.29212 83.5239ZM6.32348 80.7989C6.45747 80.2083 6.62421 79.7681 6.82371 79.4782C7.02399 79.1846 7.27712 78.9537 7.58309 78.7855C7.83526 78.6462 8.10247 78.5498 8.38473 78.4965C8.667 78.4431 8.97453 78.4508 9.30735 78.5196C9.70902 78.6025 10.084 78.7857 10.4323 79.0691C10.7768 79.3517 10.9811 79.7429 11.0454 80.2428C11.2829 79.885 11.5635 79.6558 11.8875 79.5552C12.2084 79.45 12.6653 79.4587 13.2582 79.5812L13.8263 79.6986C14.2127 79.7784 14.4779 79.8172 14.6219 79.8151C14.8495 79.8142 15.0323 79.7403 15.1703 79.5933L15.3826 79.6372L14.9807 81.5825C14.7822 81.5973 14.6232 81.6043 14.5037 81.6036C14.257 81.6005 14.009 81.5751 13.7595 81.5276L12.971 81.3766C12.4301 81.2728 12.0499 81.298 11.8306 81.4521C11.6121 81.6024 11.4491 81.9377 11.3416 82.4579L10.9645 84.2827L14.2812 84.968L13.9243 86.6952L5.46628 84.9476L6.32348 80.7989Z" fill="#F3F2F1"/>
<path d="M9.28585 69.413L10.7474 69.8631L9.98698 72.3326L16.7797 74.4243L16.2451 76.1602L9.45243 74.0686L8.68853 76.5493L7.22696 76.0993L9.28585 69.413Z" fill="#F3F2F1"/>
<path d="M19.0648 69.2132L18.4286 70.8895L10.3538 67.8251L10.99 66.1487L19.0648 69.2132Z" fill="#F3F2F1"/>
<path d="M17.3105 65.3275C17.6915 65.4436 18.0042 65.4701 18.2487 65.4068C18.6944 65.2904 19.0666 64.9096 19.3654 64.2644C19.5443 63.8781 19.647 63.5447 19.6736 63.2642C19.7223 62.7315 19.5251 62.3625 19.082 62.1573C18.8233 62.0375 18.5705 62.0582 18.3236 62.2194C18.0803 62.3822 17.7931 62.6818 17.4619 63.1182L16.8917 63.8614C16.3298 64.5913 15.8685 65.0622 15.5078 65.274C14.9017 65.6347 14.2141 65.637 13.4449 65.2808C12.743 64.9557 12.2781 64.4305 12.0502 63.705C11.8222 62.9796 11.9372 62.1224 12.3952 61.1334C12.7776 60.3075 13.3233 59.7057 14.032 59.3279C14.7388 58.945 15.5153 58.9322 16.3614 59.2896L15.6326 60.8634C15.148 60.6734 14.7179 60.7239 14.3421 61.0148C14.0927 61.2093 13.8802 61.4961 13.7046 61.8754C13.5093 62.2972 13.4384 62.6734 13.492 63.0038C13.5456 63.3343 13.7248 63.5701 14.0296 63.7113C14.3097 63.8409 14.5762 63.8137 14.8294 63.6296C14.9954 63.5128 15.2611 63.2226 15.6265 62.759L16.5762 61.5587C16.9921 61.0324 17.3886 60.6736 17.7656 60.4823C18.3509 60.1851 18.9927 60.1982 19.691 60.5216C20.407 60.8531 20.8753 61.4036 21.0959 62.173C21.3145 62.9372 21.1924 63.8191 20.7295 64.8187C20.2567 65.8395 19.6528 66.5348 18.9176 66.9047C18.1788 67.2729 17.4018 67.2682 16.5866 66.8906L17.3105 65.3275Z" fill="#F3F2F1"/>
<path d="M19.384 49.9747L20.7064 50.7429L19.4086 52.9773L25.5544 56.5471L24.6421 58.1178L18.4962 54.5479L17.1925 56.7925L15.8701 56.0243L19.384 49.9747Z" fill="#F3F2F1"/>
<path d="M27.8856 49.8393C27.5584 49.5025 27.299 49.1834 27.1073 48.8821C26.9179 48.5778 26.7932 48.2888 26.7331 48.0153C26.671 47.7253 26.6664 47.4724 26.7196 47.2568C26.7697 47.0387 26.8604 46.8447 26.9918 46.6748C27.0491 46.6006 27.1337 46.5104 27.2454 46.4042C27.4244 46.2365 27.6081 46.0946 27.7966 45.9786L29.0488 45.221C29.1962 45.1325 29.3261 45.0379 29.4385 44.9372C29.5502 44.831 29.6311 44.7455 29.6813 44.6806C29.839 44.4766 29.8856 44.2534 29.8212 44.011C29.7536 43.7663 29.6286 43.5289 29.446 43.2989L30.0552 42.5108C30.5655 43.0386 30.9258 43.5912 31.1362 44.1685C31.3489 44.7428 31.2857 45.2493 30.9464 45.6882C30.8795 45.7747 30.8013 45.8599 30.7118 45.9438C30.5407 46.1077 30.3046 46.2758 30.0036 46.4479L28.8884 47.1337C28.7851 47.1971 28.6694 47.2829 28.5413 47.3912C28.4131 47.4995 28.3251 47.5845 28.2774 47.6463C28.1412 47.8225 28.0885 48.0311 28.1194 48.2722C28.1472 48.5109 28.2759 48.766 28.5055 49.0373L27.8856 49.8393Z" fill="#F3F2F1"/>
<path d="M31.5221 33.7217L35.7571 36.5193L36.8841 37.3479L36.1383 36.1974L33.4164 31.9215L34.7967 30.6096L38.9468 33.4879L40.0865 34.3043L39.3654 33.1628L36.7589 28.7447L38.0883 27.4813L42.2755 35.4169L41.0268 36.6036L36.7914 33.661L35.4201 32.6604L36.3497 34.0808L39.0731 38.4604L37.8584 39.6148L30.1333 35.0417L31.5221 33.7217Z" fill="#F3F2F1"/>
<path d="M46.3773 23.2994L42.7311 26.0549L43.8368 27.5181L47.1839 24.9887L48.0882 26.1854L44.7412 28.7148L46.0801 30.4865L49.8946 27.6038L50.8308 28.8426L45.6092 32.7886L40.402 25.8982L45.4553 22.0793L46.3773 23.2994Z" fill="#F3F2F1"/>
<path d="M49.3446 20.5946L50.3432 22.2161L52.1493 21.1038C52.4719 20.9051 52.6961 20.6845 52.8219 20.4418C52.9491 20.1938 52.9174 19.9151 52.7269 19.6058C52.5159 19.2632 52.2436 19.119 51.9099 19.1731C51.6333 19.2379 51.317 19.3799 50.9611 19.5991L49.3446 20.5946ZM51.0928 23.4334L52.3003 25.3942L54.1064 24.282C54.4291 24.0833 54.6535 23.8854 54.7799 23.6883C55.0075 23.3279 54.9821 22.9215 54.7035 22.4692C54.468 22.0867 54.1481 21.9212 53.7441 21.9728C53.5186 22.0015 53.2452 22.1125 52.9239 22.3058L51.0928 23.4334ZM50.6635 18.0207C51.5731 17.479 52.3725 17.3468 53.0617 17.6242C53.4805 17.7976 53.824 18.1021 54.0923 18.5379C54.3688 18.9869 54.478 19.4174 54.4198 19.8295C54.3876 20.0603 54.2874 20.3147 54.1191 20.5927C54.5789 20.4976 54.9948 20.5397 55.3666 20.7189C55.7419 20.8962 56.0595 21.196 56.3197 21.6184C56.588 22.0541 56.7189 22.5125 56.7124 22.9937C56.7141 23.3092 56.6582 23.6096 56.545 23.895C56.4194 24.2201 56.2158 24.5152 55.9341 24.7804C55.6558 25.0435 55.3287 25.2909 54.9528 25.5223L51.62 27.5747L47.0912 20.2206L50.6635 18.0207Z" fill="#F3F2F1"/>
<path d="M59.5135 20.3245C59.7351 20.6555 59.9606 20.8738 60.19 20.9795C60.6088 21.1712 61.138 21.1117 61.7775 20.801C62.1604 20.6149 62.4509 20.4217 62.6488 20.2213C63.0236 19.8395 63.1042 19.4289 62.8908 18.9898C62.7662 18.7333 62.5573 18.5894 62.2642 18.5581C61.9728 18.5303 61.5608 18.5807 61.0282 18.7091L60.1164 18.9241C59.2195 19.134 58.5644 19.207 58.1511 19.1429C57.4535 19.0388 56.9195 18.6056 56.549 17.8432C56.211 17.1475 56.1832 16.4466 56.4655 15.7405C56.7478 15.0344 57.3791 14.4433 58.3594 13.967C59.178 13.5693 59.9813 13.4482 60.7692 13.604C61.5589 13.7544 62.1684 14.2357 62.5976 15.0477L61.0376 15.8057C60.7825 15.352 60.4174 15.119 59.9423 15.1066C59.6262 15.0995 59.2802 15.1873 58.9042 15.37C58.4861 15.5731 58.1933 15.8196 58.0258 16.1094C57.8583 16.3993 57.8479 16.6953 57.9947 16.9975C58.1296 17.275 58.3533 17.4226 58.6658 17.4401C58.8683 17.4546 59.2576 17.3979 59.8339 17.27L61.3287 16.9411C61.9837 16.7965 62.5178 16.7694 62.9308 16.8597C63.5721 16.9998 64.0609 17.4159 64.3972 18.108C64.742 18.8178 64.7565 19.5403 64.4407 20.2757C64.1266 21.0059 63.4742 21.6117 62.4834 22.0931C61.4715 22.5847 60.5639 22.7413 59.7605 22.5627C58.9555 22.3805 58.3566 21.8854 57.964 21.0773L59.5135 20.3245Z" fill="#F3F2F1"/>
<path d="M68.2214 19.1102L66.5573 19.7777L63.3422 11.7617L65.0063 11.0943L68.2214 19.1102Z" fill="#F3F2F1"/>
<path d="M74.1852 7.93087L74.6573 9.38548L72.1995 10.1831L74.3935 16.9434L72.6658 17.5042L70.4718 10.7438L68.0029 11.5451L67.5308 10.0905L74.1852 7.93087Z" fill="#F3F2F1"/>
<path d="M82.4224 8.13358L77.9651 9.14353L78.3704 10.9322L82.462 10.0051L82.7934 11.468L78.7019 12.3951L79.1926 14.5609L83.8556 13.5043L84.1988 15.0187L77.8156 16.465L75.9071 8.04177L82.0845 6.64209L82.4224 8.13358Z" fill="#F3F2F1"/>
<path d="M91.1317 6.62835L91.2857 8.52641L93.3999 8.35479C93.7776 8.32413 94.0775 8.22924 94.2997 8.07011C94.5255 7.90678 94.6237 7.64406 94.5943 7.28197C94.5618 6.88095 94.3846 6.62883 94.0627 6.52564C93.7867 6.45789 93.4405 6.44093 93.0239 6.47475L91.1317 6.62835ZM91.4014 9.95141L91.5877 12.2466L93.7019 12.075C94.0795 12.0443 94.3694 11.9698 94.5714 11.8515C94.9378 11.6337 95.0995 11.26 95.0565 10.7305C95.0202 10.2827 94.8103 9.99018 94.4268 9.85278C94.2129 9.77609 93.9188 9.75097 93.5448 9.77742L91.4014 9.95141ZM93.4749 4.93321C94.5312 4.86313 95.3036 5.10808 95.7919 5.66807C96.0864 6.01256 96.2543 6.43983 96.2957 6.94987C96.3384 7.47548 96.2403 7.90867 96.0015 8.24942C95.868 8.44053 95.6633 8.62175 95.3872 8.79309C95.8401 8.91701 96.1916 9.14322 96.4416 9.47172C96.6956 9.7999 96.8426 10.2112 96.8828 10.7057C96.9242 11.2157 96.8328 11.6836 96.6087 12.1094C96.467 12.3913 96.2809 12.6338 96.0505 12.8367C95.7911 13.0693 95.4758 13.24 95.1044 13.3485C94.737 13.4567 94.3333 13.5287 93.8933 13.5644L89.9921 13.8811L89.2933 5.27265L93.4749 4.93321Z" fill="#F3F2F1"/>
<path d="M104.774 4.45296L106.818 4.48453L103.847 9.82991L103.797 13.0756L101.992 13.0478L102.042 9.80205L99.1377 4.36593L101.264 4.39877L102.999 8.18772L104.774 4.45296Z" fill="#F3F2F1"/>
<path d="M112.28 5.45531L114.035 5.72095L113.503 9.23755L117.332 6.21979L119.638 6.56871L115.606 9.55579L118.525 15.1354L116.231 14.7882L114.159 10.6584L113.175 11.4043L112.743 14.2604L110.988 13.9948L112.28 5.45531Z" fill="#F3F2F1"/>
<path d="M126.649 9.49115L122.215 8.3797L121.769 10.1586L125.839 11.1789L125.474 12.6338L121.405 11.6136L120.865 13.7676L125.502 14.9304L125.125 16.4365L118.776 14.8448L120.877 6.46741L127.021 8.00776L126.649 9.49115Z" fill="#F3F2F1"/>
<path d="M135.127 11.1366L136.889 11.7755L131.176 18.8911L129.573 18.3102L129.772 9.19601L131.585 9.85286L131.113 16.656L135.127 11.1366Z" fill="#F3F2F1"/>
<path d="M138.767 18.1982L140.745 19.1412L141.234 15.6096L138.767 18.1982ZM141.18 13.396L143.02 14.2734L142.065 23.3858L140.298 22.5436L140.559 20.7015L137.687 19.3324L136.384 20.6778L134.681 19.8659L141.18 13.396Z" fill="#F3F2F1"/>
<path d="M147.552 16.2164L149.103 17.14L145.477 23.2259L149.152 25.415L148.357 26.749L143.132 23.6363L147.552 16.2164Z" fill="#F3F2F1"/>
<path d="M153.921 26.8003L155.693 28.0894L156.821 24.707L153.921 26.8003ZM157.172 22.5207L158.821 23.7202L156.214 32.5038L154.631 31.3525L155.226 29.5894L152.653 27.7178L151.125 28.8019L149.599 27.6921L157.172 22.5207Z" fill="#F3F2F1"/>
<path d="M165.827 31.0633L161.9 35.1066L163.093 36.2661C163.704 36.8594 164.423 36.9719 165.249 36.6035C165.702 36.4008 166.15 36.0711 166.593 35.6144C167.206 34.9839 167.576 34.4039 167.704 33.8745C167.837 33.3449 167.609 32.7943 167.021 32.2228L165.827 31.0633ZM168.284 31.3591C168.663 31.7376 168.939 32.0927 169.112 32.4244C169.408 32.9892 169.505 33.5928 169.404 34.2351C169.32 34.7529 169.143 35.2292 168.873 35.6641C168.603 36.099 168.31 36.4789 167.995 36.8039C167.195 37.6277 166.352 38.1648 165.466 38.4153C164.269 38.7503 163.203 38.4634 162.267 37.5543L159.598 34.9619L165.616 28.7667L168.284 31.3591Z" fill="#F3F2F1"/>
<path d="M175.247 41.3788L172.284 37.8993L170.888 39.0884L173.608 42.2824L172.466 43.255L169.746 40.0609L168.055 41.5008L171.155 45.1409L169.973 46.1476L165.73 41.1647L172.305 35.565L176.412 40.3873L175.247 41.3788Z" fill="#F3F2F1"/>
<path d="M173.778 47.7183C173.486 47.9882 173.305 48.2447 173.236 48.4876C173.111 48.931 173.251 49.4447 173.656 50.0287C173.899 50.3784 174.135 50.6356 174.364 50.8003C174.799 51.1117 175.217 51.1282 175.618 50.8497C175.852 50.687 175.962 50.4585 175.948 50.164C175.93 49.8718 175.817 49.4724 175.608 48.966L175.255 48.0983C174.909 47.2444 174.736 46.6084 174.736 46.1901C174.731 45.4848 175.077 44.8904 175.773 44.4069C176.409 43.9658 177.097 43.8303 177.838 44.0004C178.579 44.1706 179.261 44.7033 179.882 45.5985C180.401 46.346 180.645 47.1211 180.612 47.9235C180.585 48.727 180.204 49.4034 179.467 49.9526L178.478 48.528C178.887 48.206 179.061 47.8094 179 47.3381C178.958 47.0246 178.818 46.6963 178.58 46.3529C178.315 45.9711 178.026 45.7198 177.714 45.5989C177.402 45.4781 177.108 45.5134 176.832 45.7051C176.578 45.8811 176.467 46.1248 176.498 46.4363C176.515 46.6386 176.631 47.0146 176.846 47.5642L177.401 48.9905C177.645 49.6155 177.754 50.139 177.728 50.561C177.689 51.2162 177.353 51.7633 176.721 52.2022C176.073 52.6523 175.361 52.7779 174.586 52.5792C173.816 52.3814 173.117 51.8301 172.489 50.9253C171.847 50.0012 171.552 49.1285 171.605 48.3073C171.661 47.4838 172.058 46.8158 172.796 46.3033L173.778 47.7183Z" fill="#F3F2F1"/>
<path d="M177.145 56.8581L176.227 55.3177L183.647 50.8975L184.565 52.4379L177.145 56.8581Z" fill="#F3F2F1"/>
<path d="M185.656 61.1547C186.124 60.7705 186.345 60.2883 186.319 59.7083C186.303 59.385 186.215 59.0606 186.053 58.735C185.745 58.1119 185.255 57.716 184.583 57.5474C183.916 57.3806 183.11 57.5311 182.165 57.999C181.213 58.4704 180.646 59.0211 180.466 59.651C180.285 60.281 180.332 60.8725 180.605 61.4256C180.874 61.9682 181.25 62.3357 181.733 62.528C182.22 62.7186 182.737 62.7285 183.284 62.5577L182.398 60.7671L183.689 60.1276L185.286 63.3518L181.132 65.4081L180.602 64.3369L181.487 63.6958C180.965 63.5662 180.568 63.4144 180.294 63.2403C179.82 62.9432 179.429 62.4831 179.12 61.86C178.613 60.8342 178.552 59.8182 178.939 58.8117C179.315 57.7755 180.123 56.9507 181.362 56.3371C182.615 55.7167 183.79 55.5641 184.888 55.8794C185.986 56.1947 186.815 56.9195 187.377 58.0537C187.864 59.0374 188.004 59.9508 187.798 60.7937C187.598 61.6384 187.146 62.2891 186.444 62.7458L185.656 61.1547Z" fill="#F3F2F1"/>
<path d="M190.217 64.347L190.875 66.1215L186.418 71.4431L192.071 69.3462L192.656 70.9229L184.559 73.9266L183.931 72.2346L188.456 66.7939L182.704 68.9275L182.119 67.3508L190.217 64.347Z" fill="#F3F2F1"/>
</svg>
