<svg width="455" height="221" viewBox="0 0 455 221" fill="none" xmlns="http://www.w3.org/2000/svg">
<path d="M1.31788 140.24L0.324343 140.126L0.19708 141.24H1.31788V140.24ZM6.21388 117.488L5.25902 117.191L5.25689 117.198L5.25486 117.205L6.21388 117.488ZM22.0539 61.904L21.0815 61.6706L21.0793 61.6798L21.0772 61.6891L22.0539 61.904ZM24.0699 14.096L23.0947 14.3176L23.0947 14.3176L24.0699 14.096ZM20.3259 1.99998V0.999983H18.8488L19.3974 2.37137L20.3259 1.99998ZM34.1499 3.15199L34.3288 2.16812L34.3288 2.16812L34.1499 3.15199ZM44.8059 8.04799L44.1509 8.80368L44.1776 8.8268L44.2059 8.84799L44.8059 8.04799ZM52.0059 18.128L51.0746 18.4924L51.0774 18.4995L51.0803 18.5066L52.0059 18.128ZM51.7179 55.28L52.6814 55.5476L52.6814 55.5476L51.7179 55.28ZM44.8059 76.304L43.8706 75.9501L43.8679 75.9572L43.8653 75.9644L44.8059 76.304ZM36.4539 97.04L35.5401 96.6339L35.5353 96.6446L35.5308 96.6554L36.4539 97.04ZM29.2539 117.488L28.2924 117.213L27.9281 118.488H29.2539V117.488ZM73.8939 117.488V118.488H74.8939V117.488H73.8939ZM73.8939 7.75999L73.7572 6.76937L72.8939 6.88846V7.75999H73.8939ZM115.654 1.99998H116.654V0.852584L115.517 1.00936L115.654 1.99998ZM115.654 117.488H114.654V118.488H115.654V117.488ZM133.798 117.488H134.798V116.488H133.798V117.488ZM133.798 140.24V141.24H134.798V140.24H133.798ZM115.654 140.24V139.24H114.654V140.24H115.654ZM115.654 218V219H116.654V218H115.654ZM73.8939 218H72.8939V219H73.8939V218ZM73.8939 140.24H74.8939V139.24H73.8939V140.24ZM2.31141 140.354C3.07122 133.705 4.68867 126.179 7.17289 117.771L5.25486 117.205C2.74708 125.693 1.10053 133.335 0.324343 140.126L2.31141 140.354ZM7.16873 117.785C9.85722 109.143 12.6417 100.118 15.5221 90.7087L13.6097 90.1233C10.7301 99.53 7.94653 108.552 5.25902 117.191L7.16873 117.785ZM15.5221 90.7087C18.4099 81.2751 20.9127 71.7451 23.0305 62.1188L21.0772 61.6891C18.971 71.2629 16.4818 80.7409 13.6097 90.1233L15.5221 90.7087ZM23.0263 62.1374C25.3469 52.468 26.5099 43.0776 26.5099 33.968H24.5099C24.5099 42.9064 23.3688 52.14 21.0815 61.6706L23.0263 62.1374ZM26.5099 33.968C26.5099 24.9315 26.0312 18.2136 25.045 13.8744L23.0947 14.3176C24.0286 18.4264 24.5099 24.9564 24.5099 33.968H26.5099ZM25.045 13.8744C24.0739 9.60171 22.8107 5.51946 21.2544 1.62859L19.3974 2.37137C20.9131 6.16052 22.1458 10.1423 23.0947 14.3176L25.045 13.8744ZM20.3259 2.99998C25.2673 2.99998 29.8146 3.38015 33.971 4.13586L34.3288 2.16812C30.0371 1.38782 25.3684 0.999983 20.3259 0.999983V2.99998ZM33.971 4.13586C38.0415 4.87596 41.4228 6.43931 44.1509 8.80368L45.4608 7.2923C42.4289 4.66467 38.7062 2.96402 34.3288 2.16812L33.971 4.13586ZM44.2059 8.84799C47.0977 11.0169 49.3985 14.209 51.0746 18.4924L52.9371 17.7636C51.1572 13.215 48.6581 9.68713 45.4059 7.24799L44.2059 8.84799ZM51.0803 18.5066C52.7396 22.5625 53.5979 28.0814 53.5979 35.12H55.5979C55.5979 27.9506 54.7282 22.1415 52.9314 17.7494L51.0803 18.5066ZM53.5979 35.12C53.5979 41.5491 52.6525 48.179 50.7544 55.0124L52.6814 55.5476C54.6232 48.557 55.5979 41.7469 55.5979 35.12H53.5979ZM50.7544 55.0124C48.8429 61.8935 46.5485 68.8728 43.8706 75.9501L45.7412 76.6579C48.4393 69.5272 50.7528 62.4904 52.6814 55.5476L50.7544 55.0124ZM43.8653 75.9644C41.3777 82.8532 38.6026 89.7431 35.5401 96.6339L37.3677 97.4461C40.4491 90.5129 43.2421 83.5788 45.7464 76.6436L43.8653 75.9644ZM35.5308 96.6554C32.6369 103.601 30.2237 110.453 28.2924 117.213L30.2154 117.763C32.124 111.083 34.5108 104.303 37.377 97.4246L35.5308 96.6554ZM29.2539 118.488H73.8939V116.488H29.2539V118.488ZM74.8939 117.488V7.75999H72.8939V117.488H74.8939ZM74.0305 8.75062L115.791 2.9906L115.517 1.00936L73.7572 6.76937L74.0305 8.75062ZM114.654 1.99998V117.488H116.654V1.99998H114.654ZM115.654 118.488H133.798V116.488H115.654V118.488ZM132.798 117.488V140.24H134.798V117.488H132.798ZM133.798 139.24H115.654V141.24H133.798V139.24ZM114.654 140.24V218H116.654V140.24H114.654ZM115.654 217H73.8939V219H115.654V217ZM74.8939 218V140.24H72.8939V218H74.8939ZM73.8939 139.24H1.31788V141.24H73.8939V139.24ZM267.054 11.216L266.491 12.0426L266.491 12.0426L267.054 11.216ZM288.366 35.408L287.479 35.8688L287.484 35.8791L287.49 35.8893L288.366 35.408ZM298.734 148.304L297.753 148.111L297.75 148.124L298.734 148.304ZM286.062 184.592L285.191 184.101L285.184 184.113L286.062 184.592ZM263.31 210.224L263.877 211.048L263.88 211.046L263.31 210.224ZM199.662 213.104L199.2 213.991L199.211 213.997L199.223 214.002L199.662 213.104ZM176.91 192.944L176.092 193.519L176.098 193.527L176.91 192.944ZM161.934 67.088L160.964 66.8454L160.962 66.8551L161.934 67.088ZM176.91 31.952L177.737 32.5143L177.737 32.5143L176.91 31.952ZM200.814 9.77599L201.297 10.6518L201.297 10.6518L200.814 9.77599ZM204.27 149.744L203.284 149.911L203.286 149.922L203.288 149.933L204.27 149.744ZM211.758 174.512L210.853 174.938L210.858 174.948L211.758 174.512ZM221.838 188.624L221.194 189.389L221.216 189.407L221.238 189.424L221.838 188.624ZM246.318 186.896L245.578 186.223L245.577 186.225L246.318 186.896ZM255.822 169.04L254.878 168.71L254.875 168.72L254.871 168.731L255.822 169.04ZM261.87 141.104L260.88 140.967L260.878 140.975L260.878 140.982L261.87 141.104ZM261.582 64.784L260.593 64.9279L260.594 64.9382L260.596 64.9484L261.582 64.784ZM255.246 39.728L254.325 40.1186L254.33 40.1288L255.246 39.728ZM222.99 28.496L222.283 27.7889L222.283 27.7889L222.99 28.496ZM212.046 46.352L211.122 45.969L211.118 45.9806L212.046 46.352ZM204.558 74.864L205.544 75.0339L205.544 75.0311L204.558 74.864ZM233.07 2.99998C246.552 2.99998 257.67 6.03682 266.491 12.0426L267.617 10.3894C258.39 4.10714 246.853 0.999983 233.07 0.999983V2.99998ZM266.491 12.0426C275.374 18.0905 282.369 26.0271 287.479 35.8688L289.254 34.9472C283.996 24.8209 276.782 16.6295 267.617 10.3894L266.491 12.0426ZM287.49 35.8893C292.805 45.5712 296.516 56.5986 298.612 68.9829L300.584 68.6491C298.456 56.0734 294.679 44.8288 289.243 34.9267L287.49 35.8893ZM298.612 68.9829C300.715 81.4085 301.766 93.8327 301.766 106.256H303.766C303.766 93.7193 302.705 81.1835 300.584 68.6491L298.612 68.9829ZM301.766 106.256C301.766 120.593 300.428 134.545 297.753 148.111L299.715 148.497C302.416 134.799 303.766 120.719 303.766 106.256H301.766ZM297.75 148.124C295.272 161.662 291.081 173.65 285.191 184.101L286.933 185.083C292.947 174.414 297.205 162.21 299.718 148.484L297.75 148.124ZM285.184 184.113C279.495 194.544 272.014 202.968 262.74 209.402L263.88 211.046C273.423 204.424 281.109 195.76 286.94 185.071L285.184 184.113ZM262.744 209.4C253.726 215.6 242.605 218.728 229.326 218.728V220.728C242.927 220.728 254.463 217.52 263.877 211.048L262.744 209.4ZM229.326 218.728C218.716 218.728 208.979 216.55 200.102 212.206L199.223 214.002C208.393 218.49 218.433 220.728 229.326 220.728V218.728ZM200.125 212.217C191.444 207.688 183.976 201.078 177.723 192.361L176.098 193.527C182.516 202.474 190.216 209.304 199.2 213.991L200.125 212.217ZM177.729 192.369C171.475 183.463 166.623 172.443 163.19 159.284L161.255 159.788C164.734 173.125 169.673 184.377 176.092 193.519L177.729 192.369ZM163.19 159.284C159.76 146.138 158.038 130.77 158.038 113.168H156.038C156.038 130.894 157.772 146.438 161.255 159.788L163.19 159.284ZM158.038 113.168C158.038 96.142 159.664 80.8621 162.907 67.3208L160.962 66.8551C157.676 80.5779 156.038 96.018 156.038 113.168H158.038ZM162.904 67.3305C166.338 53.5956 171.288 41.9977 177.737 32.5143L176.083 31.3897C169.476 41.1063 164.442 52.9324 160.964 66.8455L162.904 67.3305ZM177.737 32.5143C184.184 23.0337 192.038 15.7538 201.297 10.6518L200.332 8.90015C190.775 14.1661 182.692 21.6703 176.083 31.3897L177.737 32.5143ZM201.297 10.6518C210.539 5.55911 221.121 2.99998 233.07 2.99998V0.999983C220.827 0.999983 209.905 3.62486 200.332 8.90015L201.297 10.6518ZM200.678 113.168C200.678 127.413 201.544 139.664 203.284 149.911L205.256 149.577C203.54 139.472 202.678 127.339 202.678 113.168H200.678ZM203.288 149.933C205.218 159.968 207.735 168.311 210.853 174.938L212.663 174.086C209.638 167.657 207.162 159.488 205.252 149.555L203.288 149.933ZM210.858 174.948C213.965 181.356 217.4 186.194 221.194 189.389L222.482 187.859C218.98 184.91 215.695 180.34 212.658 174.076L210.858 174.948ZM221.238 189.424C225.217 192.408 229.359 193.944 233.646 193.944V191.944C229.869 191.944 226.139 190.6 222.438 187.824L221.238 189.424ZM233.646 193.944C238.768 193.944 243.25 191.778 247.06 187.567L245.577 186.225C242.09 190.078 238.125 191.944 233.646 191.944V193.944ZM247.058 187.569C251.024 183.206 254.25 177.112 256.773 169.349L254.871 168.731C252.402 176.328 249.292 182.138 245.578 186.223L247.058 187.569ZM256.766 169.37C259.484 161.604 261.513 152.218 262.863 141.226L260.878 140.982C259.539 151.878 257.536 161.116 254.878 168.71L256.766 169.37ZM262.861 141.241C264.404 130.05 265.174 117.524 265.174 103.664H263.174C263.174 117.452 262.408 129.886 260.88 140.967L262.861 141.241ZM265.174 103.664C265.174 88.0804 264.309 75.061 262.569 64.6196L260.596 64.9484C262.312 75.243 263.174 88.1436 263.174 103.664H265.174ZM262.572 64.6401C261.029 54.0371 258.901 45.5867 256.162 39.3272L254.33 40.1288C256.967 46.1573 259.063 54.4109 260.593 64.9279L262.572 64.6401ZM256.167 39.3374C253.451 32.9359 250.397 28.2553 246.954 25.4201L245.682 26.9639C248.768 29.5047 251.665 33.8481 254.326 40.1185L256.167 39.3374ZM246.954 25.4201C243.552 22.6187 239.975 21.16 236.238 21.16V23.16C239.414 23.16 242.556 24.3893 245.682 26.9639L246.954 25.4201ZM236.238 21.16C231.293 21.16 226.637 23.4353 222.283 27.7889L223.697 29.2031C227.792 25.1087 231.967 23.16 236.238 23.16V21.16ZM222.283 27.7889C218.124 31.9477 214.414 38.0301 211.122 45.969L212.97 46.735C216.206 38.9299 219.792 33.1082 223.697 29.2031L222.283 27.7889ZM211.118 45.9806C208.011 53.7463 205.5 63.3238 203.572 74.6969L205.544 75.0311C207.456 63.7482 209.937 54.3176 212.975 46.7234L211.118 45.9806ZM203.573 74.6941C201.641 85.899 200.678 98.7257 200.678 113.168H202.678C202.678 98.8103 203.635 86.101 205.544 75.0339L203.573 74.6941ZM320.818 140.24L319.824 140.126L319.697 141.24H320.818V140.24ZM325.714 117.488L324.759 117.191L324.757 117.198L324.755 117.205L325.714 117.488ZM341.554 61.904L340.581 61.6706L340.579 61.6798L340.577 61.6891L341.554 61.904ZM343.57 14.096L342.595 14.3176L342.595 14.3176L343.57 14.096ZM339.826 1.99998V0.999983H338.349L338.897 2.37137L339.826 1.99998ZM353.65 3.15199L353.829 2.16812L353.829 2.16812L353.65 3.15199ZM364.306 8.04799L363.651 8.80368L363.678 8.8268L363.706 8.84799L364.306 8.04799ZM371.506 18.128L370.575 18.4924L370.577 18.4995L370.58 18.5066L371.506 18.128ZM371.218 55.28L372.181 55.5476L372.181 55.5476L371.218 55.28ZM364.306 76.304L363.371 75.9501L363.368 75.9572L363.365 75.9644L364.306 76.304ZM355.954 97.04L355.04 96.6339L355.035 96.6446L355.031 96.6554L355.954 97.04ZM348.754 117.488L347.792 117.213L347.428 118.488H348.754V117.488ZM393.394 117.488V118.488H394.394V117.488H393.394ZM393.394 7.75999L393.257 6.76937L392.394 6.88846V7.75999H393.394ZM435.154 1.99998H436.154V0.852584L435.017 1.00936L435.154 1.99998ZM435.154 117.488H434.154V118.488H435.154V117.488ZM453.298 117.488H454.298V116.488H453.298V117.488ZM453.298 140.24V141.24H454.298V140.24H453.298ZM435.154 140.24V139.24H434.154V140.24H435.154ZM435.154 218V219H436.154V218H435.154ZM393.394 218H392.394V219H393.394V218ZM393.394 140.24H394.394V139.24H393.394V140.24ZM321.811 140.354C322.571 133.705 324.189 126.179 326.673 117.771L324.755 117.205C322.247 125.693 320.601 133.335 319.824 140.126L321.811 140.354ZM326.669 117.785C329.357 109.143 332.142 100.118 335.022 90.7087L333.11 90.1233C330.23 99.53 327.447 108.552 324.759 117.191L326.669 117.785ZM335.022 90.7087C337.91 81.2751 340.413 71.7451 342.531 62.1188L340.577 61.6891C338.471 71.2629 335.982 80.7409 333.11 90.1233L335.022 90.7087ZM342.526 62.1374C344.847 52.468 346.01 43.0776 346.01 33.968H344.01C344.01 42.9064 342.869 52.14 340.581 61.6706L342.526 62.1374ZM346.01 33.968C346.01 24.9315 345.531 18.2136 344.545 13.8744L342.595 14.3176C343.529 18.4264 344.01 24.9564 344.01 33.968H346.01ZM344.545 13.8744C343.574 9.60171 342.311 5.51946 340.754 1.62859L338.897 2.37137C340.413 6.16052 341.646 10.1423 342.595 14.3176L344.545 13.8744ZM339.826 2.99998C344.767 2.99998 349.315 3.38015 353.471 4.13586L353.829 2.16812C349.537 1.38782 344.868 0.999983 339.826 0.999983V2.99998ZM353.471 4.13586C357.542 4.87596 360.923 6.43931 363.651 8.80368L364.961 7.2923C361.929 4.66467 358.206 2.96402 353.829 2.16812L353.471 4.13586ZM363.706 8.84799C366.598 11.0169 368.899 14.209 370.575 18.4924L372.437 17.7636C370.657 13.215 368.158 9.68713 364.906 7.24799L363.706 8.84799ZM370.58 18.5066C372.24 22.5625 373.098 28.0814 373.098 35.12H375.098C375.098 27.9506 374.228 22.1415 372.431 17.7494L370.58 18.5066ZM373.098 35.12C373.098 41.5491 372.153 48.179 370.254 55.0124L372.181 55.5476C374.123 48.557 375.098 41.7469 375.098 35.12H373.098ZM370.254 55.0124C368.343 61.8935 366.049 68.8728 363.371 75.9501L365.241 76.6579C367.939 69.5272 370.253 62.4904 372.181 55.5476L370.254 55.0124ZM363.365 75.9644C360.878 82.8532 358.103 89.7431 355.04 96.6339L356.868 97.4461C359.949 90.5129 362.742 83.5788 365.246 76.6436L363.365 75.9644ZM355.031 96.6554C352.137 103.601 349.724 110.453 347.792 117.213L349.715 117.763C351.624 111.083 354.011 104.303 356.877 97.4246L355.031 96.6554ZM348.754 118.488H393.394V116.488H348.754V118.488ZM394.394 117.488V7.75999H392.394V117.488H394.394ZM393.531 8.75062L435.291 2.9906L435.017 1.00936L393.257 6.76937L393.531 8.75062ZM434.154 1.99998V117.488H436.154V1.99998H434.154ZM435.154 118.488H453.298V116.488H435.154V118.488ZM452.298 117.488V140.24H454.298V117.488H452.298ZM453.298 139.24H435.154V141.24H453.298V139.24ZM434.154 140.24V218H436.154V140.24H434.154ZM435.154 217H393.394V219H435.154V217ZM394.394 218V140.24H392.394V218H394.394ZM393.394 139.24H320.818V141.24H393.394V139.24Z" fill="#F3F2F1"/>
</svg>
